<svg width="35" height="50" xmlns="http://www.w3.org/2000/svg" version="1.1" enable-background="new 0 0 35 50" xml:space="preserve">
 <g id="Layer_1">
  <title>Layer 1</title>
  <path fill="none" stroke="#000" id="svg_1" d="m15.91779,22.49825c0,0.32895 -0.32895,0.32895 -0.65789,0.32895c-0.32895,0 -0.33775,0.07558 -0.65789,0c-0.71587,-0.16899 -0.86096,-0.68293 -0.98684,-0.98684c-0.17802,-0.42979 -1.14916,-0.61794 -1.31578,-1.64473c-0.05269,-0.3247 0.37765,-1.06196 0,-1.97368c-0.17802,-0.42979 -0.49127,-0.94689 -0.65789,-1.97368c-0.05269,-0.3247 0.53201,-1.34082 0.65789,-1.64473c0.35605,-0.85958 1.32458,-0.91126 1.64473,-0.98684c0.71587,-0.16899 0.98684,-0.98684 1.97368,-0.98684c0.32895,0 0.98684,-0.32895 1.64473,-0.32895c1.31578,0 1.64473,0 2.30262,0c0.65789,0 0.98684,0 1.31578,0c0.32895,0 0.86095,0.35399 0.98684,0.65789c0.17802,0.42979 0.42529,0.42529 0.65789,0.65789c0.2326,0.2326 0.70702,-0.17294 0.98684,0c0.62569,0.3867 0.32895,0.98684 0.65789,1.31578c0.32895,0.32895 0.80882,0.2281 0.98684,0.65789c0.25176,0.60781 0,0.65789 0,0.65789c0,0.65789 0,1.31578 0,1.31578c0,0.32895 0,0.65789 0,0.65789c-0.32895,0.65789 -0.4272,0.31202 -0.98684,0.65789c-0.62569,0.3867 -1.34082,1.1899 -1.64473,1.31579c-0.85958,0.35605 -1.31578,0.65789 -1.31578,0.98684c0,0 -0.52164,-0.4652 -0.98684,0c-0.2326,0.2326 -0.32895,0.32895 -0.65789,0.32895c-0.32895,0 -0.68293,-0.12588 -0.98684,0c-0.42979,0.17802 -0.65789,0.32895 -1.31578,0.65789c0,0 -0.2281,0.15092 -0.65789,0.32895c-0.60781,0.25176 -0.65789,0.32895 -0.65789,0.32895l-0.32895,0"/>
  <path fill="none" stroke="#000" id="svg_2" d="m14.27306,23.81403c-0.32895,0.32895 -0.25337,0.66669 -0.32895,0.98684c-0.16899,0.71587 -0.98684,1.64473 -1.31578,1.97368c-0.65789,0.65789 -0.886,1.13776 -1.31578,1.31578c-0.30391,0.12588 -0.2281,0.47987 -0.65789,0.65789c-0.30391,0.12588 -0.55705,0.47987 -0.98684,0.65789c-0.30391,0.12588 -0.65789,0 -0.65789,0c-0.32895,0.32895 -0.65789,0.32895 -0.98684,0.32895c-0.32895,0 -0.65789,0 -0.98684,0c0,0 -0.09635,0.09635 -0.32895,0.32895c-0.2326,0.2326 -0.42529,0.42529 -0.65789,0.65789c-0.4652,0.4652 0,0.98684 0,1.31578c0,0 0.05694,0.2805 0.32895,0.65789c0.43008,0.59671 1.01264,0.91771 1.97368,1.31578c0.67956,0.28148 1.60478,0.49127 2.63157,0.65789c0.6494,0.10538 1.67053,0.06913 2.63157,-0.32895c0.67956,-0.28148 1.46671,-0.2281 1.64473,-0.65789c0.12588,-0.30391 0.32895,-0.32895 0.98684,-0.32895c0.65789,0 1.31578,0 1.64473,0c0.32895,0 0.65789,0 0.98684,0c0,0 0.32895,0 0.65789,0c0.32895,0 1.31578,0 2.63157,0c0.65789,0 1.31579,0 1.97368,0c0.98684,0 1.64473,0.65789 2.30262,0.65789c0.32895,0 0.65789,0 0.98684,0c0.32895,0 0.68293,0.12588 0.98684,0c0.42979,-0.17802 0.75424,-0.09634 0.98684,-0.32895c0.2326,-0.2326 0.09635,-0.09635 0.32895,-0.32895c0.2326,-0.2326 -0.12588,-0.68293 0,-0.98684c0.17802,-0.42979 0.32895,-0.32895 0.32895,-0.65789c0,-0.32895 0,-0.65789 0,-0.98684c0,-0.32895 0,-0.65789 0,-0.98684c0,-0.32895 -0.32895,-0.32895 -0.32895,-0.65789c0,-0.32895 -0.32895,-0.65789 -0.32895,-0.98684c0,0 -0.47987,-0.55705 -0.65789,-0.98684c-0.12588,-0.30391 -0.4889,-0.59991 -0.65789,-1.31578c-0.07558,-0.32015 -0.32895,-0.32895 -0.32895,-0.65789c0,-0.32895 -0.42529,-0.09634 -0.65789,-0.32895c-0.2326,-0.2326 -0.32895,-0.65789 -0.32895,-0.65789c0,-0.32895 -0.92908,-0.0322 -1.31578,-0.65789c-0.17294,-0.27982 -0.09635,-0.42529 -0.32895,-0.65789c-0.6978,-0.6978 -0.98684,-0.32895 -0.98684,-0.32895c-0.32895,0 -0.98684,0 -1.31579,0c0,0 -0.32895,0 -0.98684,0c-0.32895,0 -0.32895,0.32895 -0.32895,0.32895c-0.32895,0 -0.65789,0 -0.98684,0c-0.32895,0 -0.68293,-0.12588 -0.98684,0c-0.42979,0.17802 -0.55705,0.47987 -0.98684,0.65789c-0.30391,0.12588 -0.65789,0 -0.98684,0c-0.32895,0 -0.98684,0 -1.31578,0c0,0 -0.32895,0 -0.65789,0l-0.32895,-0.32895l-0.32895,0"/>
  <path fill="none" stroke="#000" id="svg_3" d="m6.7073,32.03768c0,0 -0.15601,0.04913 -0.32895,0.32895c-0.3867,0.62569 -0.42529,0.75424 -0.65789,0.98684c-0.4652,0.4652 -0.69009,0.92909 -1.31578,1.31579c-0.27982,0.17294 -0.97209,0.18064 -1.31578,1.31578c-0.09532,0.31483 -0.95974,0.45621 -1.31578,1.31578c-0.12588,0.30391 0.2326,0.75424 0,0.98684c-0.2326,0.2326 -0.50188,0.37807 -0.32895,0.65789c0.3867,0.62569 1.58675,0.81784 2.30262,0.98684c0.64029,0.15115 1.31578,0 1.97368,0c0.98684,0 1.97368,0 2.63157,0c0.98684,0 1.97368,0 2.63157,0c0.98684,0 1.31578,0 1.31578,0c0.65789,0 0.98684,0 1.31578,0c0.98684,0 1.31578,0 2.30262,0c0.65789,0 1.64473,-0.32895 2.63157,-0.32895c0.65789,0 1.64473,0 2.30262,0c1.31578,0 2.63157,0 4.2763,0c1.31578,0 1.97368,0 2.63157,0c0.32895,0 0.98684,-0.32895 1.64473,-0.32895c0.65789,0 1.33338,0.15115 1.97368,0c0.71587,-0.16899 0.73301,0.0487 1.64473,-0.32895c0.42979,-0.17802 0.65789,-0.32895 0.65789,-0.32895c0,-0.32895 0,-0.65789 0,-0.98684c0,-0.32895 0,-0.65789 0,-1.31578c0,-0.32895 -0.09635,-0.75424 -0.32895,-0.98684c-0.4652,-0.4652 -0.0088,-0.58232 -0.32895,-0.65789c-0.71587,-0.16899 -1.37697,-0.22781 -1.97368,-0.65789c-0.37739,-0.27201 -0.37902,-0.07718 -0.98684,-0.32895c-0.42979,-0.17802 -0.65789,-0.32895 -1.31578,-0.32895l-0.32895,0l-0.32895,0"/>
  <path fill="none" stroke="#000" id="svg_4" d="m14.60201,25.12982c0,0 0,0.32895 0,0.32895c0,0.65789 0,1.31578 0,1.64473c0,0.65789 -0.65789,0.98684 -0.65789,1.31578c0,0.32895 -0.32895,0.32895 -0.32895,0.65789c0,0.32895 0,0.32895 0,0.32895c-0.32895,0.32895 -0.32895,0.65789 -0.65789,0.65789c-0.32895,0 -0.65789,0.32895 -0.65789,0.32895c-0.32895,0 -0.89049,0.09635 -0.65789,0.32895c0.4652,0.4652 1.31578,0.32895 1.97368,0.32895c0.65789,0 1.31578,0 1.31578,0c0.32895,0 0.65789,0 0.98684,0l0.32895,0l0,0l0.32895,0.32895"/>
  <path fill="none" stroke="#000" id="svg_5" d="m22.82566,24.14298c0,0 0.55676,0.39013 0.98684,0.98684c0.27201,0.37739 0.32895,0.65789 0.32895,0.65789c0,0.65789 0.47987,0.88599 0.65789,1.31578c0.25176,0.60781 0,0.98684 0,0.98684c0,0.32895 0.12588,0.68293 0,0.98684c-0.17802,0.42979 -0.32895,0.32895 -0.65789,0.65789c0,0 -0.09635,0.09635 -0.32895,0.32895c-0.2326,0.2326 -0.65789,0.32895 -0.98684,0.32895c0,0 -0.32895,0 -0.65789,0c-0.32895,0 -0.65789,0 -0.65789,0c-0.32895,0.32895 -0.65789,0.32895 -0.98684,0.32895c-0.32895,0 -0.09635,0.09635 -0.32895,0.32895c-0.2326,0.2326 -0.65789,0 -0.65789,0.32895c0,0.32895 -0.42529,0.09635 -0.65789,0.32895c-0.2326,0.2326 -0.2326,0.42529 0,0.65789c0.2326,0.2326 0.65789,0 0.98684,0c0.32895,0 0.32895,0 0.65789,0l0.32895,0l0.32895,0l0.32895,0"/>
  <polyline fill="none" stroke="#000" points="14.93095064163208,16.24826669692993 14.93095064163208,16.24826669692993 " id="svg_6" stroke-linecap="round"/>
  <polyline fill="none" stroke="#000" points="19.53619623184204,16.24826669692993 19.53619623184204,16.24826669692993 " id="svg_7" stroke-linecap="round"/>
  <path fill="none" stroke="#000" id="svg_8" d="m14.60201,18.55089c0,0 0.32895,0 0.32895,0c0.32895,0 0.42529,0.09635 0.65789,0.32895c0.2326,0.2326 0.65789,0 0.65789,0c0,0 0.42529,-0.2326 0.65789,0c0.2326,0.2326 0.32895,0.32895 0.65789,0.32895c0,0 0.32895,0 0.65789,0c0.32895,0 0.65789,0 0.65789,0c0.32895,0 0.32895,-0.32895 0.65789,-0.32895l0,0"/>
  <path fill="none" stroke="#000" id="svg_9" d="m9.66781,20.19562c0,0 -0.32895,0 -0.32895,0c-0.65789,-0.65789 -0.75424,-1.08319 -0.98684,-1.31579c-0.2326,-0.2326 -0.65789,-0.65789 -0.65789,-0.98684c0,-0.32895 -0.07718,-0.37903 -0.32895,-0.98684c-0.17802,-0.42979 -0.32895,-0.65789 -0.32895,-1.31578c0,-0.65789 0,-0.98684 0,-1.64473c0,-0.32895 0.07718,-0.37902 0.32895,-0.98684c0.35605,-0.85958 0.80881,-0.886 0.98684,-1.31578c0.25176,-0.60781 0.22781,-0.71908 0.65789,-1.31578c0.54401,-0.75478 0.88995,-0.77177 1.64473,-1.31578c0.59671,-0.43008 1.32003,-0.6052 1.64473,-0.65789c1.02679,-0.16662 1.41776,-0.11102 2.30262,-0.65789c0.39572,-0.24457 0.65789,-0.32895 0.98684,-0.32895c0.65789,0 1.97368,-0.32895 2.63157,-0.32895c0.65789,0 1.97368,0 2.96052,0c0.65789,0 1.64473,0 2.63157,0c0.32895,0 0.65789,0 0.98684,0c0.32895,0 0.65789,0 0.98684,0c0.32895,0 0.65789,0 0.98684,0.32895c0,0 0.65789,0 0.98684,0.32895c0.32895,0.32895 0.4272,-0.01693 0.98684,0.32895c0.62569,0.3867 0.85058,0.19269 1.31578,0.65789c0.4652,0.4652 0.42529,0.42529 0.65789,0.65789c0.2326,0.2326 0,0.32895 0,0.65789c0,0.32895 0.47987,0.55705 0.65789,0.98684c0.12588,0.30391 0.32895,0.65789 0.32895,0.98684c0,0.32895 0,0.32895 0,0.65789c0,0.65789 0,0.98684 0,1.64473c0,0.32895 -0.37807,0.48495 -0.65789,0.65789c-0.62569,0.3867 -0.2281,1.13776 -0.65789,1.31578c-0.60781,0.25176 -0.86095,0.35399 -0.98684,0.65789c-0.17802,0.42979 -0.75424,0.42529 -0.98684,0.65789c-0.2326,0.2326 -0.32895,0 -0.65789,0c-0.32895,0 -0.42529,0.09634 -0.65789,0.32895c-0.4652,0.4652 -0.09635,0.75424 -0.32895,0.98684c-0.2326,0.2326 -0.32895,0 -0.65789,0l-0.32895,0"/>
  <polyline fill="none" stroke="#000" points="-68.0259993741912,44.14466723866837 -68.35494552080414,43.81572109205545 " id="svg_10" stroke-linecap="round"/>
 </g>

</svg>